<svg width="192" height="45" viewBox="0 0 154 36" fill="none" xmlns="http://www.w3.org/2000/svg">
    <g filter="url(#filter0_d)">
        <path d="M38.002 28.797H38.868L48.09 2.504H47.224L38.002 28.797ZM59.042 24.415C58.3927 24.9856 57.5543 25.2939 56.69 25.28C54.818 25.28 53.839 24.191 53.839 22.238V12.329H58.618V11.52H53.844V8.338H52.922V11.52H50.183V12.329H52.922V22.38C52.8721 22.8776 52.933 23.3801 53.1004 23.8513C53.2678 24.3226 53.5374 24.7509 53.89 25.1055C54.2427 25.4601 54.6694 25.7322 55.1397 25.9023C55.61 26.0723 56.1121 26.1361 56.61 26.089C57.6684 26.1222 58.7022 25.7664 59.516 25.089L59.042 24.415ZM67.542 11.408C65.4443 11.3811 63.4119 12.1374 61.842 13.529L62.342 14.199C63.7538 12.9133 65.6028 12.2144 67.512 12.245C70.446 12.245 71.983 13.752 71.983 16.627V18.05H66.699C62.759 18.05 61.417 19.892 61.417 22.013C61.417 24.441 63.345 26.088 66.617 26.088C67.7093 26.1697 68.8018 25.9306 69.76 25.3999C70.7183 24.8693 71.5007 24.0702 72.011 23.101V26.001H72.905V16.627C72.903 13.222 71.003 11.408 67.538 11.408H67.542ZM66.676 25.308C63.965 25.308 62.344 24.024 62.344 21.959C62.344 20.145 63.544 18.805 66.704 18.805H71.986V21.819C71.603 22.9014 70.876 23.8286 69.9162 24.4587C68.9563 25.0888 67.8165 25.3871 66.671 25.308H66.676ZM78.106 26.008H79.028V5.298H78.106V26.008ZM95.852 26.008H97.026L90.09 17.325L96.378 11.519H95.148L85.312 20.48V5.295H84.39V26.005H85.312V21.595L89.364 17.88L95.852 26.008ZM99.9 7.723C100.144 7.72091 100.377 7.62324 100.549 7.451C100.722 7.27876 100.82 7.04571 100.822 6.802C100.814 6.56278 100.713 6.33609 100.541 6.16956C100.369 6.00303 100.139 5.90963 99.9 5.909C99.6563 5.91109 99.4232 6.00876 99.2507 6.181C99.0783 6.35324 98.9804 6.58629 98.978 6.83C98.9863 7.06922 99.087 7.29591 99.2589 7.46244C99.4309 7.62897 99.6607 7.72237 99.9 7.723V7.723ZM99.453 26.005H100.375V11.519H99.453V26.005ZM106.19 7.723C106.434 7.72091 106.667 7.62324 106.839 7.451C107.012 7.27876 107.11 7.04571 107.112 6.802C107.104 6.56278 107.003 6.33609 106.831 6.16956C106.659 6.00303 106.429 5.90963 106.19 5.909C105.946 5.91109 105.713 6.00876 105.541 6.181C105.368 6.35324 105.27 6.58629 105.268 6.83C105.276 7.06922 105.377 7.29591 105.549 7.46244C105.721 7.62897 105.951 7.72237 106.19 7.723V7.723ZM105.741 26.005H106.663V11.519H105.741V26.005ZM112.476 7.723C112.72 7.72091 112.953 7.62324 113.125 7.451C113.298 7.27876 113.396 7.04571 113.398 6.802C113.39 6.56278 113.289 6.33609 113.117 6.16956C112.945 6.00303 112.715 5.90963 112.476 5.909C112.232 5.91109 111.999 6.00876 111.827 6.181C111.654 6.35324 111.556 6.58629 111.554 6.83C111.562 7.06922 111.663 7.29591 111.835 7.46244C112.007 7.62897 112.237 7.72237 112.476 7.723V7.723ZM112.029 26.005H112.951V11.519H112.029V26.005ZM125.164 11.405C123.915 11.3229 122.672 11.6305 121.606 12.2854C120.539 12.9403 119.702 13.9102 119.211 15.061V11.516H118.317V26.005H119.239V18.19C119.239 14.617 121.447 12.273 125.08 12.273C128.238 12.273 130.08 14.087 130.08 17.548V26.005H131.002V17.492C131.004 13.501 128.713 11.408 125.164 11.408V11.405ZM148.108 11.517V15.285C147.548 14.0871 146.648 13.0805 145.52 12.3906C144.392 11.7006 143.086 11.3579 141.764 11.405C140.822 11.3626 139.882 11.5144 139.001 11.851C138.12 12.1875 137.318 12.7016 136.645 13.3613C135.971 14.0211 135.44 14.8123 135.085 15.6858C134.731 16.5593 134.559 17.4964 134.582 18.439C134.559 19.3831 134.73 20.3218 135.084 21.1972C135.438 22.0726 135.968 22.8659 136.641 23.5281C137.315 24.1903 138.117 24.7073 138.998 25.047C139.879 25.3867 140.82 25.5419 141.764 25.503C143.078 25.5493 144.377 25.2091 145.5 24.5244C146.622 23.8397 147.52 22.8406 148.08 21.651V24.721C148.08 28.821 146.18 30.666 142.127 30.666C139.932 30.7317 137.797 29.941 136.174 28.461L135.643 29.161C137.419 30.7719 139.76 31.6149 142.155 31.506C146.71 31.506 149.002 29.357 149.002 24.612V11.522L148.108 11.517ZM141.79 24.666C140.96 24.7021 140.132 24.5664 139.357 24.2672C138.582 23.9681 137.877 23.512 137.286 22.9276C136.696 22.3432 136.233 21.6431 135.926 20.8712C135.619 20.0993 135.474 19.2723 135.502 18.442C135.475 17.6145 135.621 16.7905 135.929 16.022C136.237 15.2535 136.701 14.5574 137.292 13.9776C137.883 13.3977 138.588 12.9469 139.362 12.6535C140.137 12.3601 140.963 12.2305 141.79 12.273C142.618 12.23 143.446 12.359 144.222 12.6518C144.998 12.9446 145.705 13.3949 146.298 13.9743C146.892 14.5537 147.359 15.2497 147.67 16.0184C147.981 16.7872 148.129 17.612 148.106 18.441C148.131 19.2729 147.983 20.101 147.673 20.8734C147.364 21.6458 146.898 22.346 146.305 22.9302C145.712 23.5144 145.005 23.9701 144.228 24.2688C143.452 24.5674 142.621 24.7027 141.79 24.666V24.666Z" fill="url(#paint0_linear)"/>
    </g>
    <path d="M15.469 10.313C14.0436 9.76377 12.5275 9.48797 11 9.5C9.4725 9.48797 7.9564 9.76377 6.531 10.313C5.27069 10.7715 4.13894 11.526 3.231 12.513C2.46013 13.3188 2.02068 14.3851 2 15.5C2.01138 16.3893 2.30093 17.2527 2.828 17.969C3.44423 18.818 4.23883 19.5218 5.156 20.031L6.672 20.906L6.125 22.219C6.479 22.0103 6.802 21.8073 7.094 21.61L7.782 21.126L8.61 21.282C9.39863 21.4254 10.1984 21.4983 11 21.5C12.5274 21.5124 14.0435 21.2369 15.469 20.688C16.7293 20.2295 17.8611 19.475 18.769 18.488C19.5401 17.682 19.9796 16.6153 20 15.5C19.9797 14.3867 19.5417 13.3216 18.773 12.516C17.8643 11.5273 16.7311 10.7718 15.469 10.313V10.313ZM5.469 8.579C7.22082 7.84931 9.10237 7.48225 11 7.5C12.8942 7.48137 14.7728 7.8453 16.523 8.57C18.0839 9.18675 19.4629 10.1893 20.531 11.484C21.4732 12.6109 21.9927 14.0312 22 15.5C21.9927 16.9688 21.4732 18.3891 20.531 19.516C19.4629 20.8107 18.0839 21.8133 16.523 22.43C14.7728 23.1547 12.8942 23.5186 11 23.5C10.0778 23.4976 9.15754 23.4139 8.25 23.25C6.93652 24.1768 5.46414 24.8546 3.906 25.25C3.46297 25.3566 3.0147 25.44 2.563 25.5H2.516C2.39771 25.4985 2.28399 25.4541 2.196 25.375C2.09708 25.292 2.03285 25.175 2.016 25.047C2.00516 25.0141 1.99976 24.9796 2 24.945C1.99996 24.9115 2.00263 24.8781 2.008 24.845C2.01356 24.8123 2.02401 24.7806 2.039 24.751L2.078 24.673C2.09422 24.643 2.1126 24.6143 2.133 24.587C2.15325 24.559 2.17565 24.5326 2.2 24.508C2.21533 24.4927 2.23867 24.4667 2.27 24.43C2.30133 24.3933 2.32233 24.37 2.333 24.36C2.385 24.2973 2.50467 24.167 2.692 23.969C2.87933 23.771 3.01467 23.6173 3.098 23.508C3.18133 23.3987 3.29867 23.2477 3.45 23.055C3.59821 22.8672 3.72908 22.6664 3.841 22.455C3.95033 22.2463 4.057 22.0173 4.161 21.768C2.94604 21.0899 1.90213 20.1432 1.109 19C0.390893 17.9738 0.0039102 16.7525 0 15.5C0.00731311 14.0312 0.52683 12.6109 1.469 11.484C2.53416 10.1916 3.91069 9.19158 5.469 8.578V8.579ZM23.844 25.766C23.948 26.016 24.0547 26.2453 24.164 26.454C24.2759 26.6654 24.4068 26.8662 24.555 27.054C24.7063 27.2467 24.8237 27.3977 24.907 27.507C24.9903 27.6163 25.1257 27.77 25.313 27.968C25.5003 28.168 25.62 28.2983 25.672 28.359C25.6827 28.3697 25.7037 28.393 25.735 28.429C25.7663 28.465 25.7897 28.491 25.805 28.507C25.8279 28.5314 25.849 28.5575 25.868 28.585C25.8884 28.6123 25.9068 28.641 25.923 28.671L25.962 28.749C25.977 28.7786 25.9874 28.8103 25.993 28.843C25.9984 28.8761 26.001 28.9095 26.001 28.943C26.001 28.977 25.9956 29.0107 25.985 29.043C25.9611 29.1777 25.8902 29.2996 25.785 29.387C25.7376 29.428 25.6825 29.4591 25.6229 29.4785C25.5633 29.4979 25.5004 29.5052 25.438 29.5C24.986 29.44 24.5374 29.3566 24.094 29.25C22.5359 28.8546 21.0635 28.1768 19.75 27.25C18.8425 27.4139 17.9222 27.4976 17 27.5C14.3914 27.5609 11.8238 26.843 9.625 25.438C10.229 25.4793 10.6873 25.5 11 25.5C12.6351 25.5072 14.2622 25.2713 15.828 24.8C17.3057 24.3625 18.6999 23.6811 19.953 22.784C21.18 21.9091 22.2034 20.7793 22.953 19.472C23.6409 18.2613 24.0017 16.8924 24 15.5C23.9997 14.6948 23.8787 13.8943 23.641 13.125C24.9041 13.7935 25.9952 14.7453 26.829 15.906C27.5874 16.9511 27.9971 18.2087 28 19.5C27.9986 20.7554 27.6114 21.9799 26.891 23.008C26.0972 24.1461 25.0554 25.0892 23.844 25.766V25.766Z" fill="#3B3B3B"/>
    <defs>
        <filter id="filter0_d" x="36.002" y="0.504" width="117" height="35.0114" filterUnits="userSpaceOnUse" color-interpolation-filters="sRGB">
            <feFlood flood-opacity="0" result="BackgroundImageFix"/>
            <feColorMatrix in="SourceAlpha" type="matrix" values="0 0 0 0 0 0 0 0 0 0 0 0 0 0 0 0 0 0 127 0" result="hardAlpha"/>
            <feColorMatrix type="matrix" values="0 0 0 0 1 0 0 0 0 1 0 0 0 0 1 0 0 0 0.173 0"/>
            <feBlend mode="normal" in="SourceGraphic" in2="effect1_dropShadow" result="shape"/>
        </filter>
        <linearGradient id="paint0_linear" x1="80.515" y1="42.4817" x2="84.2077" y2="-4.24693" gradientUnits="userSpaceOnUse">
            <stop stop-color="#2D79F1"/>
            <stop offset="1" stop-color="#17CD91"/>
        </linearGradient>
    </defs>
</svg>
